<svg xmlns="http://www.w3.org/2000/svg" width="512" height="512" viewBox="0 0 200 200"><g transform="translate(100 104) scale(1.2) translate(-100 -104)">
    <path d="M36,76 A64,64 0 0 0 164,76Z" fill="#AFD84A"></path>
    <path d="M40.5,76 A59.5,59.5 0 0 0 159.5,76" fill="none" stroke="#2E7D43" stroke-width="9" stroke-linecap="butt" stroke-dasharray="9.5 6.5" stroke-dashoffset="3"></path>
    <path d="M45,76 A55,55 0 0 0 155,76" fill="none" stroke="#FAFAF8" stroke-width="3" stroke-linecap="round"></path>
    <path d="M46.5,76 A53.5,53.5 0 0 0 153.5,76Z" fill="#E94555"></path>
    <ellipse cx="137.08" cy="95.72" rx="2.5" ry="4.1" fill="#241F1D" transform="rotate(-62 137.08 95.72)"></ellipse><ellipse cx="125.39" cy="109.45" rx="2.5" ry="4.1" fill="#241F1D" transform="rotate(-37.2 125.39 109.45)"></ellipse><ellipse cx="109.02" cy="117.02" rx="2.5" ry="4.1" fill="#241F1D" transform="rotate(-12.4 109.02 117.02)"></ellipse><ellipse cx="90.98" cy="117.02" rx="2.5" ry="4.1" fill="#241F1D" transform="rotate(12.4 90.98 117.02)"></ellipse><ellipse cx="74.61" cy="109.45" rx="2.5" ry="4.1" fill="#241F1D" transform="rotate(37.2 74.61 109.45)"></ellipse><ellipse cx="62.92" cy="95.72" rx="2.5" ry="4.1" fill="#241F1D" transform="rotate(62 62.92 95.72)"></ellipse><ellipse cx="116.71" cy="95.92" rx="2.5" ry="4.1" fill="#241F1D" transform="rotate(-40 116.71 95.92)"></ellipse><ellipse cx="106" cy="101.3" rx="2.5" ry="4.1" fill="#241F1D" transform="rotate(-13.3 106 101.3)"></ellipse><ellipse cx="94" cy="101.3" rx="2.5" ry="4.1" fill="#241F1D" transform="rotate(13.3 94 101.3)"></ellipse><ellipse cx="83.29" cy="95.92" rx="2.5" ry="4.1" fill="#241F1D" transform="rotate(40 83.29 95.92)"></ellipse></g></svg>